<?xml version="1.0" ?>
<!-- Uploaded to: SVG Repo, www.svgrepo.com, Generator: SVG Repo Mixer Tools -->
<svg width="800px" height="800px" viewBox="0 0 128 128" xmlns="http://www.w3.org/2000/svg">
<defs>
<style>.cls-1{fill:#2e2f42;}</style>
</defs>
<title/>
<g data-name="Layer 2" id="Layer_2">
<g id="Export">
<path class="cls-1" d="M64,3A61,61,0,1,1,3,64,61.06,61.06,0,0,1,64,3m0-3a64,64,0,1,0,64,64A64,64,0,0,0,64,0Z"/>
<path class="cls-1" d="M47,27H41.6l3.83-3.83A1.5,1.5,0,1,0,43.31,21l-6.39,6.4a1.63,1.63,0,0,0-.33.49v0a1.56,1.56,0,0,0,0,1.1v0a1.53,1.53,0,0,0,.82.82h0A1.42,1.42,0,0,0,38,30h9a1.5,1.5,0,1,0,0-3Z"/>
<path class="cls-1" d="M23,27H28.4l-3.83-3.83A1.5,1.5,0,0,1,26.69,21l6.39,6.4a1.63,1.63,0,0,1,.33.49v0a1.43,1.43,0,0,1,0,1.1v0a1.57,1.57,0,0,1-.82.82h0A1.46,1.46,0,0,1,32,30H23a1.5,1.5,0,0,1,0-3Z"/>
<path class="cls-1" d="M47,36H41.6l3.83,3.83A1.5,1.5,0,0,1,43.31,42l-6.39-6.4a1.63,1.63,0,0,1-.33-.49v0a1.56,1.56,0,0,1,0-1.1v0a1.53,1.53,0,0,1,.82-.82h0A1.42,1.42,0,0,1,38,33h9a1.5,1.5,0,1,1,0,3Z"/>
<path class="cls-1" d="M23,36H28.4l-3.83,3.83A1.5,1.5,0,0,0,26.69,42l6.39-6.4a1.63,1.63,0,0,0,.33-.49v0a1.43,1.43,0,0,0,0-1.1v0a1.57,1.57,0,0,0-.82-.82h0A1.46,1.46,0,0,0,32,33H23a1.5,1.5,0,0,0,0,3Z"/>
<path class="cls-1" d="M88.7,52.41h-9a1.5,1.5,0,0,0,0,3h9a1.5,1.5,0,1,0,0-3Z"/>
<path class="cls-1" d="M45.57,52.41h-9a1.5,1.5,0,0,0,0,3h9a1.5,1.5,0,0,0,0-3Z"/>
<path class="cls-1" d="M84.87,83.68a1.47,1.47,0,0,1-.85-.26,38,38,0,0,0-24.09-6.7,37.48,37.48,0,0,0-18.72,6.69A1.5,1.5,0,1,1,39.49,81a40.5,40.5,0,0,1,20.23-7.22,41,41,0,0,1,26,7.22,1.5,1.5,0,0,1-.85,2.73Z"/>
</g>
</g>
</svg>