<?xml version="1.0" ?>
<!-- Uploaded to: SVG Repo, www.svgrepo.com, Generator: SVG Repo Mixer Tools -->
<svg width="800px" height="800px" viewBox="0 0 128 128" xmlns="http://www.w3.org/2000/svg">
<defs>
<style>.cls-1{fill:#2e2f42;}</style>
</defs>
<title/>
<g data-name="Layer 2" id="Layer_2">
<g id="Export">
<path class="cls-1" d="M64,3A61,61,0,1,1,3,64,61.06,61.06,0,0,1,64,3m0-3a64,64,0,1,0,64,64A64,64,0,0,0,64,0Z"/>
<path class="cls-1" d="M90.09,56.8H81a1.5,1.5,0,0,1,0-3h9a1.5,1.5,0,0,1,0,3Z"/>
<path class="cls-1" d="M47,56.8H37.91a1.5,1.5,0,0,1,0-3H47a1.5,1.5,0,0,1,0,3Z"/>
<path class="cls-1" d="M86.26,87.76H41.74a1.5,1.5,0,1,1,0-3H86.26a1.5,1.5,0,0,1,0,3Z"/>
</g>
</g>
</svg>